<svg width="127" height="61" viewBox="0 0 127 61" fill="none" xmlns="http://www.w3.org/2000/svg">
<path d="M13.8769 41V11.9119H23.3647C26.5143 11.9119 29.2474 12.5366 31.564 13.786C33.8807 15.0354 35.6767 16.7534 36.9522 18.9399C38.2276 21.1264 38.8653 23.6252 38.8653 26.4364C38.8653 29.2476 38.2276 31.7595 36.9522 33.972C35.6767 36.1585 33.8807 37.8764 31.564 39.1259C29.2474 40.3753 26.5143 41 23.3647 41H13.8769ZM19.9288 35.729H23.5209C25.421 35.729 27.0609 35.3516 28.4405 34.5967C29.82 33.8158 30.8873 32.7356 31.6421 31.356C32.423 29.9504 32.8134 28.3106 32.8134 26.4364C32.8134 24.5363 32.423 22.8964 31.6421 21.5168C30.8873 20.1373 29.82 19.07 28.4405 18.3152C27.0609 17.5603 25.421 17.1829 23.5209 17.1829H19.9288V35.729ZM42.7408 41V11.9119H62.3021V17.1829H48.7927V23.7814H61.5212V29.0524H48.7927V35.729H62.3021V41H42.7408ZM73.5417 41L63.5853 11.9119H70.2229L77.7194 35.2605H76.3919L83.8885 11.9119H90.526L80.5697 41H73.5417Z" fill="white"/>
<path d="M13.4628 56.0791V44.2927H15.915V49.387H20.503V44.2927H22.9552V56.0791H20.503V51.5227H15.915V56.0791H13.4628ZM25.0502 56.0791V44.2927H32.9763V46.4285H27.5024V49.1022H32.6599V51.238H27.5024V53.9433H32.9763V56.0791H25.0502ZM34.3665 56.0791V44.2927H36.8187V53.9433H41.8022V56.0791H34.3665ZM44.1959 56.0791V46.4285H41.2058V44.2927H49.5908V46.4285H46.6481V56.0791H44.1959ZM56.2273 56.2689C55.3413 56.2689 54.5187 56.116 53.7593 55.8102C52.9999 55.5043 52.3354 55.0771 51.7659 54.5287C51.2069 53.9697 50.7692 53.321 50.4528 52.5827C50.1363 51.8444 49.9781 51.0429 49.9781 50.178C49.9781 49.3131 50.1311 48.5115 50.4369 47.7732C50.7533 47.0349 51.191 46.3916 51.75 45.8431C52.3196 45.2947 52.9841 44.8675 53.7435 44.5616C54.5028 44.2558 55.3308 44.1028 56.2273 44.1028C57.1238 44.1028 57.9518 44.2558 58.7111 44.5616C59.4705 44.8675 60.1297 45.2947 60.6887 45.8431C61.2583 46.3916 61.696 47.0349 62.0018 47.7732C62.3183 48.5115 62.4765 49.3131 62.4765 50.178C62.4765 51.0429 62.3183 51.8444 62.0018 52.5827C61.6854 53.321 61.2425 53.9697 60.6729 54.5287C60.1139 55.0771 59.4547 55.5043 58.6953 55.8102C57.9359 56.116 57.1133 56.2689 56.2273 56.2689ZM56.2273 54.0541C56.7652 54.0541 57.2609 53.9591 57.7144 53.7693C58.1785 53.5794 58.5846 53.3158 58.9326 52.9782C59.2807 52.6302 59.5496 52.2189 59.7395 51.7442C59.9293 51.2696 60.0243 50.7475 60.0243 50.178C60.0243 49.6084 59.9293 49.0916 59.7395 48.6276C59.5496 48.1529 59.2807 47.7416 58.9326 47.3935C58.5846 47.0455 58.1785 46.7818 57.7144 46.6025C57.2609 46.4127 56.7652 46.3177 56.2273 46.3177C55.6894 46.3177 55.1884 46.4127 54.7243 46.6025C54.2708 46.7818 53.87 47.0455 53.522 47.3935C53.1739 47.7416 52.905 48.1529 52.7151 48.6276C52.5253 49.0916 52.4303 49.6084 52.4303 50.178C52.4303 50.7475 52.5253 51.2696 52.7151 51.7442C52.905 52.2189 53.1739 52.6302 53.522 52.9782C53.87 53.3158 54.2708 53.5794 54.7243 53.7693C55.1884 53.9591 55.6894 54.0541 56.2273 54.0541ZM64.2156 56.0791V44.2927H66.0983L72.4266 52.6302L71.414 52.8675V44.2927H73.8662V56.0791H71.9678L65.7502 47.6783L66.6678 47.441V56.0791H64.2156ZM78.8003 56.0791V44.2927H83.7838C84.596 44.2927 85.2921 44.4298 85.8722 44.704C86.4522 44.9783 86.8952 45.3738 87.2011 45.8906C87.507 46.3968 87.6599 47.0139 87.6599 47.7416C87.6599 48.2584 87.5175 48.7541 87.2327 49.2287C86.948 49.6928 86.4786 50.0831 85.8247 50.3995V49.1971C86.447 49.4397 86.9269 49.7297 87.2644 50.0672C87.6019 50.4048 87.8339 50.7739 87.9605 51.1747C88.0871 51.5649 88.1503 51.9763 88.1503 52.4087C88.1503 53.5689 87.7654 54.4707 86.9954 55.114C86.2255 55.7574 85.155 56.0791 83.7838 56.0791H78.8003ZM81.2525 53.9433H84.0686C84.5643 53.9433 84.9598 53.8009 85.2552 53.5162C85.5505 53.2314 85.6981 52.8622 85.6981 52.4087C85.6981 51.9446 85.5505 51.5702 85.2552 51.2854C84.9598 51.0007 84.5643 50.8583 84.0686 50.8583H81.2525V53.9433ZM81.2525 48.7225H83.9579C84.3376 48.7225 84.6381 48.617 84.8596 48.4061C85.0917 48.1846 85.2077 47.8945 85.2077 47.5359C85.2077 47.1773 85.0917 46.8926 84.8596 46.6816C84.6381 46.4601 84.3376 46.3494 83.9579 46.3494H81.2525V48.7225ZM89.7234 56.0791V44.2927H94.2323C95.0444 44.2927 95.7616 44.4351 96.3839 44.7199C97.0167 45.0046 97.5124 45.4265 97.871 45.9855C98.2296 46.5445 98.4089 47.2353 98.4089 48.058C98.4089 48.8596 98.2244 49.5452 97.8552 50.1147C97.4861 50.6737 96.9903 51.0956 96.3681 51.3804L99.0576 56.0791H96.3048L93.3938 50.8741L94.9758 51.8075H92.1756V56.0791H89.7234ZM92.1756 49.6717H94.2481C94.5961 49.6717 94.8967 49.6032 95.1499 49.4661C95.403 49.3289 95.5981 49.1391 95.7352 48.8965C95.8829 48.6539 95.9567 48.3744 95.9567 48.058C95.9567 47.7311 95.8829 47.4463 95.7352 47.2037C95.5981 46.9611 95.403 46.7713 95.1499 46.6342C94.8967 46.497 94.5961 46.4285 94.2481 46.4285H92.1756V49.6717ZM100.276 56.0791V44.2927H102.728V56.0791H100.276ZM106.938 56.0791V46.4285H103.948V44.2927H112.333V46.4285H109.39V56.0791H106.938ZM118.969 56.2689C118.083 56.2689 117.261 56.116 116.501 55.8102C115.742 55.5043 115.077 55.0771 114.508 54.5287C113.949 53.9697 113.511 53.321 113.195 52.5827C112.878 51.8444 112.72 51.0429 112.72 50.178C112.72 49.3131 112.873 48.5115 113.179 47.7732C113.495 47.0349 113.933 46.3916 114.492 45.8431C115.062 45.2947 115.726 44.8675 116.485 44.5616C117.245 44.2558 118.073 44.1028 118.969 44.1028C119.866 44.1028 120.694 44.2558 121.453 44.5616C122.213 44.8675 122.872 45.2947 123.431 45.8431C124 46.3916 124.438 47.0349 124.744 47.7732C125.06 48.5115 125.218 49.3131 125.218 50.178C125.218 51.0429 125.06 51.8444 124.744 52.5827C124.427 53.321 123.984 53.9697 123.415 54.5287C122.856 55.0771 122.197 55.5043 121.437 55.8102C120.678 56.116 119.855 56.2689 118.969 56.2689ZM118.969 54.0541C119.507 54.0541 120.003 53.9591 120.456 53.7693C120.92 53.5794 121.327 53.3158 121.675 52.9782C122.023 52.6302 122.292 52.2189 122.481 51.7442C122.671 51.2696 122.766 50.7475 122.766 50.178C122.766 49.6084 122.671 49.0916 122.481 48.6276C122.292 48.1529 122.023 47.7416 121.675 47.3935C121.327 47.0455 120.92 46.7818 120.456 46.6025C120.003 46.4127 119.507 46.3177 118.969 46.3177C118.431 46.3177 117.93 46.4127 117.466 46.6025C117.013 46.7818 116.612 47.0455 116.264 47.3935C115.916 47.7416 115.647 48.1529 115.457 48.6276C115.267 49.0916 115.172 49.6084 115.172 50.178C115.172 50.7475 115.267 51.2696 115.457 51.7442C115.647 52.2189 115.916 52.6302 116.264 52.9782C116.612 53.3158 117.013 53.5794 117.466 53.7693C117.93 53.9591 118.431 54.0541 118.969 54.0541Z" fill="white"/>
<circle cx="89.8194" cy="38.2896" r="2.50494" fill="#07E78F"/>
</svg>
